<svg xmlns="http://www.w3.org/2000/svg" xml:space="preserve" width="2000" height="560" data-id="lg_Rz7QDqpmcamgZFsdrY" data-version="1" viewBox="0 0 2000 560"><g data-padding="20"><g transform="translate(10 13.302)scale(.9525)"><path d="m1034.869 1.232-140.672 39.2v9.184c0 9.912-29.736 27.776-56.448 37.52L828.9 90.44v213.864c0 70.952 35.448 137.368 102.48 191.968a425.6 425.6 0 0 0 101.976 61.376l5.992 2.352 5.992-2.352c2.072-.84 51.744-20.552 101.92-61.376 67.088-54.6 102.592-120.96 102.592-191.968V90.384l-8.904-3.136c-26.712-9.8-56.448-27.664-56.448-37.576v-9.24L1039.349 0Z"/><path fill="none" stroke="#fff" stroke-width="2" d="m170.991-22.252-25.12 7v1.64c0 1.77-5.31 4.96-10.08 6.7l-1.58.59v38.19c0 12.67 6.33 24.53 18.3 34.28a76 76 0 0 0 18.21 10.96l1.07.42 1.07-.42c.37-.15 9.24-3.67 18.2-10.96 11.98-9.75 18.32-21.6 18.32-34.28v-38.2l-1.59-.56c-4.77-1.75-10.08-4.94-10.08-6.71v-1.65l-25.92-7.22Z" paint-order="stroke" transform="matrix(5.25 0 0 5.34 137.347 133.33)"/><rect width="258.804" height="111.249" x="510.003" y="-175.624" fill="none" rx="0" ry="0" transform="translate(400.5 288.93)"/><path fill="#fff" d="M940.185 161.74q-5.8 0-9.9-2.49t-6.27-7.15-2.17-11.12q0-6.33 2.12-10.93 2.11-4.61 6.23-7.11 4.11-2.5 10.07-2.5 4.32 0 7.8 1.65t5.51 4.82q2.04 3.18 2.01 7.77h-8.94q-.02-2.17-.96-3.49-.93-1.32-2.51-1.91-1.59-.59-3.57-.59-2.69 0-4.67 1.32t-3.07 4.08q-1.08 2.76-1.08 7.08 0 4.21 1.11 6.94 1.11 2.74 3.11 4.06 1.99 1.32 4.63 1.32 2.26 0 3.82-.62 1.57-.62 2.41-1.79.84-1.16.84-2.84h8.96q.03 4.12-2.03 7.16t-5.58 4.69-7.87 1.65m45.62-.58h-24.99v-39.98h24.5v7.89h-18.56l2.66-2.03v11.46l-2.66-1.73h16.72v7.87h-16.45l2.39-1.71v12.35l-2.66-2.06h19.05Zm14.36 0h-8.5v-39.98h11.17l11.52 23.76 3.05 8.36h.19l-1.15-10.26v-21.86h8.5v39.98h-11.25l-11.47-23.76-2.89-7.61h-.27l1.1 11.88Zm48.7 0h-8.74V132.4q0-1.65.6-2.39.61-.75 1.84-.94h-12.32v-7.89h28.44v7.89h-9.82Zm46.48 0h-10.32l-8.6-15.37h-4.24l-1.84-.41.8-5.5V139h5.8q1.92 0 3.09-.66t1.69-1.86q.53-1.19.53-2.82 0-2-.72-3.02-.71-1.02-1.88-1.39t-2.6-.37l-4.37-.03-1.93-3.11-.44-4.56h7.87q3.85 0 6.78 1.29 2.92 1.29 4.57 3.91 1.65 2.61 1.65 6.54 0 3.05-1.15 5.71-1.16 2.65-3.6 4.31-2.45 1.67-6.33 1.83l1.1-.44q1.07 0 1.98.2.91.19 1.68.71t1.37 1.49Zm-22.64 0h-8.71v-39.98h8.71Zm32.01 0h-9.26l12.01-39.98h13.4l12.01 39.98h-9.26l-3.61-12.92 4.84 3.63h-19.71l.49-6.93h17.3l-2.94 3.19-3.63-13.01-2.01-8.17h-.44l-1.98 8.17Zm55.44 0h-23.18v-39.98h8.8v37.29l-5.44-5.36h19.82Zm-213.47 49.1h-8.78v-39.98h8.78Zm-22.11 0h-8.78v-39.98h8.78Zm14.76-16.58h-17.35v-7.87h17.38Zm31.39 17.41q-5 0-9.1-2.42t-6.52-7.13q-2.42-4.7-2.42-11.52 0-6.6 2.32-11.19 2.33-4.59 6.4-6.97t9.35-2.38q5.17 0 9.25 2.38 4.09 2.38 6.46 6.97 2.38 4.59 2.38 11.19 0 6.82-2.36 11.52-2.37 4.71-6.45 7.13t-9.31 2.42m0-8.01q2.75 0 4.81-1.4 2.07-1.4 3.23-4.28 1.17-2.87 1.17-7.3 0-4.18-1.15-6.98-1.16-2.81-3.23-4.22-2.08-1.42-4.8-1.42-2.59 0-4.66 1.42-2.08 1.41-3.28 4.22-1.19 2.8-1.19 6.98 0 3.33.69 5.78.68 2.45 1.92 4.04 1.24 1.6 2.9 2.38 1.67.78 3.59.78m37.54 7.72q-4.59 0-8.27-1.44-3.67-1.45-5.73-4.47-2.06-3.03-1.9-7.73h8.53q.05 1.98.82 3.38.77 1.41 2.42 2.13 1.65.73 4.29.73 2.15 0 3.52-.44 1.38-.44 2.02-1.3.65-.87.65-2.13 0-1.41-.88-2.33t-2.76-1.72q-1.89-.79-4.86-1.81-3.68-1.32-6.45-2.97-2.76-1.65-4.27-4.04-1.51-2.4-1.51-5.89 0-5.44 3.78-8.29t10.27-2.85q4.43 0 7.4 1.39t4.55 4.14 1.85 6.82h-8.36q-.05-1.59-.67-2.69t-1.8-1.68-2.94-.58q-2.67 0-4.07.87-1.41.86-1.41 2.73 0 1.41.65 2.38.65.98 2.24 1.83 1.6.85 4.43 1.9 2.64.96 5.07 1.88 2.44.92 4.36 2.17 1.93 1.26 3.04 3.15 1.11 1.9 1.11 4.84.03 6-4.09 9.01-4.13 3.01-11.03 3.01m34.26-13.82h-2.22q-1.76 0-2.66-.92-.89-.92-1.22-2.88l-1.29-1.76 1.92-1.56h4.57q2.25 0 3.74-.66 1.48-.66 2.22-2.08.75-1.42.75-3.7 0-3.52-1.78-4.73-1.77-1.21-5.04-1.21h-4.62l-2.37-7.2h7.95q7.26 0 11.04 3.05t3.78 9.65q0 2.78-.78 5.29-.79 2.52-2.52 4.49-1.73 1.96-4.55 3.09t-6.92 1.13m-5.47 13.28h-8.72v-39.98h8.72Zm33.69 0h-8.83v-39.98h8.83Zm23.73 0h-8.74V181.5q0-1.65.6-2.4.61-.74 1.84-.93h-12.32v-7.89h28.44v7.89h-9.82Zm20.9 0h-9.27l12.02-39.98h13.39l12.02 39.98h-9.27l-3.6-12.92 4.84 3.63h-19.72l.5-6.93h17.3l-2.95 3.19-3.63-13.01-2-8.17h-.44l-1.98 8.17Zm55.44 0h-23.18v-39.98h8.8v37.29l-5.45-5.37h19.83Z"/><rect width="86.974" height="22.6" x="595.918" y="-131.3" fill="none" rx="0" ry="0" transform="translate(400.5 182.74)"/><path fill="#fff" d="M1002.505 68.67q-1.66 0-2.83-.66t-1.79-1.91q-.62-1.26-.62-3.04 0-1.84.66-3.1.66-1.27 1.86-1.92t2.81-.65q1.56 0 2.63.59 1.06.59 1.61 1.74t.55 2.83q0 .21-.01.49-.02.27-.04.62h-7.02q.11 1.36.66 1.99.55.62 1.54.62.82 0 1.25-.36.42-.36.5-.95h2.98q-.09 1.13-.68 1.97-.6.83-1.63 1.29-1.03.45-2.43.45m-.92-6.76h2.81q-.04-1.05-.5-1.57-.47-.52-1.43-.52-1.13 0-1.65.81-.52.8-.53 2.28.08-.57.39-.78.31-.22.91-.22m11.47 6.78q-1.41 0-2.42-.41-1.02-.41-1.58-1.24-.56-.84-.62-2.13h3.03q.09.8.52 1.18.42.38 1.14.38.36 0 .69-.08.33-.09.54-.3.21-.22.21-.6 0-.31-.15-.5-.16-.2-.45-.33-.3-.14-.72-.25-.42-.12-.95-.28-.94-.28-1.75-.68-.82-.4-1.32-1.07t-.5-1.76q0-1.63 1.2-2.42 1.19-.79 3.13-.79 1.14 0 2.05.31t1.51 1.1q.59.79.76 2.23l-3.01-.02q-.09-.64-.31-.95-.22-.32-.5-.42-.28-.11-.58-.11-.34 0-.61.11-.28.11-.44.32t-.16.53q0 .38.24.65t.73.48q.49.2 1.25.41.5.13 1.13.32.62.19 1.2.53.57.34.95.92.37.58.37 1.5 0 1.6-1.23 2.49-1.23.88-3.35.88m9.92-.04q-1.35 0-2.1-.68-.75-.69-.76-2.13l-.03-4.88q0-.38.22-.62.21-.24.6-.31l-.82-1.99v-.33l.57-3.23h2.53v10.4q0 .7.18.97.17.27.67.27t.84-.02q.33-.02.63-.07v2.45q-.36.13-1.07.15-.72.02-1.46.02m2.46-8.62h-6.51v-2.42h6.51Zm3.15 8.64q-.72 0-1.23-.52-.51-.53-.51-1.36 0-.82.51-1.34t1.23-.52 1.23.52.51 1.34q0 .83-.51 1.36-.51.52-1.23.52m16.12-.15h-10.14q.66-.83 1.27-1.61l1.19-1.52 1.11-1.44q.53-.7 1.04-1.36.95-1.24 1.53-2 .58-.77.85-1.33.27-.57.27-1.18 0-.71-.4-1.23-.41-.53-1.47-.52-.66 0-1.15.31t-.69.96q-.2.64 0 1.64h-2.88q-.26-1.97.3-3.19.55-1.23 1.72-1.8 1.16-.57 2.73-.57 1.58 0 2.64.51t1.59 1.42q.53.9.53 2.09 0 1.15-.37 2.09-.37.93-.91 1.71-.55.77-1.07 1.47-.42.55-.84 1.11l-.84 1.1-.84 1.1q.33-.34.75-.44.42-.11 1.17-.11h2.91Zm7.01.21q-1.6 0-2.81-.77-1.22-.78-1.9-2.45-.68-1.68-.68-4.36 0-2.6.68-4.25t1.9-2.43q1.21-.79 2.81-.79 1.61 0 2.82.79 1.2.78 1.88 2.43.67 1.65.67 4.25 0 2.68-.67 4.36-.68 1.67-1.88 2.45-1.21.77-2.82.77m0-2.87q.68 0 1.17-.43.48-.44.74-1.47t.26-2.79q0-1.73-.26-2.74t-.74-1.44q-.49-.44-1.17-.44t-1.17.44q-.49.43-.75 1.44t-.26 2.74q0 1.76.26 2.79t.75 1.47q.49.43 1.17.43m16.43 2.66h-10.14q.66-.83 1.27-1.61l1.19-1.52 1.11-1.44q.53-.7 1.04-1.36.95-1.24 1.53-2 .58-.77.85-1.33.27-.57.27-1.18 0-.71-.4-1.23-.41-.53-1.47-.52-.66 0-1.15.31t-.69.96q-.2.64 0 1.64h-2.88q-.26-1.97.3-3.19.55-1.23 1.72-1.8 1.16-.57 2.73-.57 1.58 0 2.64.51t1.59 1.42q.53.9.53 2.09 0 1.15-.37 2.09-.37.93-.91 1.71-.55.77-1.07 1.47-.42.55-.84 1.11l-.84 1.1-.84 1.1q.33-.34.75-.44.42-.11 1.17-.11h2.91Z"/><path fill="#fff" d="M1078.155 68.52h-2.83v-2.6h-7.2l5.12-11.94h4.94l-.05.04.01 9.36h1.86v2.54h-1.85Zm-5.51-6.25-.68 1.52q.2-.23.44-.32.23-.09.62-.09h3.2q-.55 0-.72-.36-.18-.36-.18-.99v-2.82l.05-3.33-1.42 3.43Zm72.928 397.543h-126.04V372.08h-46.17v87.734h-37.537v-121.19h209.747Zm-122.478-3.562h118.916V342.185H939.415v114.066h30.387v-87.734h53.293Zm88.776-55.156h-18.468v-18.44h-17.098v18.44h-18.44v17.098h18.44v18.44h17.098v-18.44h18.44Zm51.566-58.91H915.413l21.098-44.799h208.486Zm-242.38-3.562h237.092l-15.508-37.675H938.785Z"/><path fill="#fe5200" stroke="#fff" stroke-width="1.7" d="M912.079 100.55h255.932M914.889 236.82h255.932"/></g><path fill="transparent" stroke="transparent" d="M789.5 0h421v560h-421z"/></g></svg>