<svg xmlns="http://www.w3.org/2000/svg" xml:space="preserve" width="2000" height="196" data-id="lg_mZAxGhkORSy8Li7TwF" data-version="1" viewBox="0 0 2000 196"><g data-padding="20"><g fill="#1ef938" fill-rule="evenodd"><path d="m989.543 23.768.092-.046.046-.023.07-.07.046-.046q0-.045.045-.069v-.092l.024-.023v-.07l.023-.045v-.092l.023-.047v-.138l.023-.116.092-.069-.07-.046v.116l-1.314.992Zm.508-.969c.9.323 1.176-.508 1.615-1.038l.115-.092.115-.116Zm30.913 122.27c21.063-25.007 34.259-53.499 36.958-86.396a66.9 66.9 0 0 0-3.369-28.722c-1.107-3.046-2.03-6.298-4.751-8.444q-4.569-3.691-9.852-6.367a41.53 41.53 0 0 0-24.084-4.36c-8.213 1.014-15.342 4.475-21.917 9.297l-.092.07c-.23.16-.416.322-.23.668.346.23.576 0 .853-.161 4.89-2.307 9.92-4.268 15.295-5.007 11.166-1.546 20.647 1.431 27.753 10.497 5.952 7.567 8.19 16.495 8.997 25.838.854 9.69.047 19.31-2.215 28.746-8.42 35.066-25.838 64.064-56.705 84.205q-.046-.07 0 .023c1.753.669 3.53 1.269 5.236 1.983 1.039.438 1.846.324 2.839-.23a99.3 99.3 0 0 0 25.26-21.616" vector-effect="non-scaling-stroke"/><path d="M1006.768 140.455c17.348-21.109 28.076-44.986 29.76-72.509.692-11.004-.646-21.754-6.298-31.512-5.306-9.136-13.196-14.327-23.993-14.719-6.505-.231-12.55 1.499-18.456 3.991-.045-1.661-.807-.784-1.384-.37a108.5 108.5 0 0 0-23.254 22.217 145.3 145.3 0 0 0-24.8 47.685c-1.892 6.23-3.23 12.55-4.222 18.964-.161 1.107.093 1.43 1.246 1.453 4.568.07 4.568.116 5.213-4.383l.162-1.338a156.8 156.8 0 0 1 24.085-58.229 127 127 0 0 1 19.748-23.461c.738.553-.508.946-.231 1.453q0 .046.069.116h.416l.922-.277c5.745-1.592 11.535-2.076 17.348-.577 10.151 2.607 16.266 9.574 19.91 19.01 4.314 11.142 4.291 22.654 2.491 34.235a115.35 115.35 0 0 1-17.648 45.217c-8.581 13.15-19.01 24.454-33.035 32.02-.186.117-.462.231-.324.555l.324.184c1.268.461 2.584.854 3.782 1.453 1.477.715 2.63.461 4.061-.346a90 90 0 0 0 24.107-20.832m31.56 7.314a193.8 193.8 0 0 0 39.311-75.139 12.92 12.92 0 0 0-.184-8.397 113 113 0 0 0-7.66-17.257 155 155 0 0 1-1.683 17.072 168.4 168.4 0 0 1-21.04 57.144c-8.836 15.18-19.518 28.86-33.129 40.142a99 99 0 0 1-12.572 8.72c2.26.853 4.245 1.546 6.182 2.376 1.177.53 2.1.346 3.184-.323a117.7 117.7 0 0 0 27.591-24.34" vector-effect="non-scaling-stroke"/><path d="M995.825 121.515c-.254.461-.554.9-.646 1.384a59.9 59.9 0 0 1-5.721 17.556c.392-.069.645-.045.76-.138q1.616-1.776 3.162-3.645a108.43 108.43 0 0 0 23.23-51.538c1.615-10.082 1.478-20.14-1.775-29.945-4.453-13.518-14.88-22.724-30.384-21.455-3.875.324-5.26 1.292-6.713 5.306l.138.07.97.069c12.272.116 20.624 6.183 25.584 17.141 4.337 9.62 4.66 19.817 3.392 30.083a94.6 94.6 0 0 1-11.997 35.112" vector-effect="non-scaling-stroke"/><path d="M981.492 71.116q.138-.323.16-.553a2.3 2.3 0 0 0-.207-.923 30 30 0 0 0-8.166-11.304c-1.2-.97-3.392-1.315-3.484-2.884-.092-1.43 1.153-2.93 1.684-4.43.322-.945.693-1.084 1.638-.738q7.89 2.838 12.504 9.827c5.352 8.075 6.644 17.119 6.206 26.554-.046 1.061 0 2.03.369 3a64.6 64.6 0 0 1 3.46 15.133c.808-.461.785-1.199.97-1.776a78.4 78.4 0 0 0 2.952-13.15c1.223-9.413 1.038-18.756-2.56-27.73-3.507-8.698-9.344-14.995-18.71-17.371-3.345-.854-3.322-.832-5.237 2.006a173 173 0 0 0-15.272 27.8 159.2 159.2 0 0 0-11.835 39.726c-.16 1.084 0 1.384 1.061 1.315a30 30 0 0 1 4.06 0c1.362.116 1.73-.507 1.915-1.73 1.292-7.936 3.345-15.688 5.698-23.348 1.939-6.32 4.983-12.249 6.183-18.824.577-3.23 1.638-6.322 2.4-9.505.345-1.407.784-1.707 2.168-.923a46.1 46.1 0 0 1 12.043 9.828m101.668 17.995c-14.787 34.674-34.097 65.426-65.865 86.834 2.446.923 4.8 1.754 7.107 2.7.922.392 1.614.23 2.445-.323a124.6 124.6 0 0 0 17.764-14.188c16.149-15.457 28.79-33.474 39.426-53.015q.577-1.015.554-2.19a140 140 0 0 0-1.431-19.818m-48.838 93.155c2.837 1.062 5.374 1.916 7.843 2.977 1.246.53 2.122.254 3.16-.461 11.651-8.145 21.617-18.065 30.892-28.722.622-.716.922-1.546 1.199-2.4a134 134 0 0 0 4.983-18.963c.139-.739.392-1.546-.092-2.491-13.335 19.263-28.169 36.818-47.985 50.061M971.756 35.75a90 90 0 0 0-13.404 10.335 117.7 117.7 0 0 0-26.622 39.773q-5.652 13.61-7.613 28.191c-.046.53-.392 1.453.23 1.546q2.123.346 4.2 0c.968-.185.691-1.384.784-2.146.715-5.629 1.96-11.142 3.552-16.564q7.59-25.607 24.477-46.347 6.599-7.959 14.397-14.764" vector-effect="non-scaling-stroke"/><path d="m953.5 49.115-.37-.415a23 23 0 0 0-5.928 4.268 100.35 100.35 0 0 0-31.515 59.174c-.553 3.782-.577 3.738 2.769 3.691.969-.046 1.384-.3 1.384-1.292q.093-1.661.415-3.253a108.43 108.43 0 0 1 27.823-56.752q2.653-2.768 5.421-5.444" vector-effect="non-scaling-stroke"/></g><path fill="transparent" stroke="transparent" d="M905.5 0h189v196h-189z"/></g></svg>